# xmcd
#
# Track frame offsets:
#	182
#	18227
#	31642
#	44080
#	56110
#	74065
#	87130
#	100040
#	111607
#	124050
#	138257
#	153692
#	169180
#	186897
#	204207
#
# Disc length: 2937
#
# Revision: 1
# Processed by: cddbd v1.5.1PL0 Copyright (c) Steve Scherf et al.
# Submitted via: dBpowerAMP V4.0
# Normalized: r0:TDELIM( - )
#
DISCID=d30b770f
DTITLE=Various Artist - Star Spangled Country (Disk 2)
DYEAR=1997
DGENRE=Country
TTITLE0=Hank Williams Jr. - All My Rowdy Friends (Have Settled Down)
TTITLE1=Dolly Parton - Here You Come Again
TTITLE2=Johnny Lee - Bet Your Heart On Me
TTITLE3=Gene Watson - Fourteen Carat Mind
TTITLE4=Bobby Goldsboro - Honey
TTITLE5=Cal Smith - The Lord Knows I'm Drinking
TTITLE6=Don Williams - Some Broken Hearts Never Mend
TTITLE7=Debby Boone - Are You On The Road To Lovin' Me Again
TTITLE8=Johnny Paycheck - Take This Job And Shove It
TTITLE9=David Allan Coe - The Ride
TTITLE10=Frizzell and West - You're The Reason God Made Oklahoma
TTITLE11=Earl Thomas Conley - Your Love's On The Line
TTITLE12=Eddie Rabbitt and Crystal Gayle - You And I
TTITLE13=Ray Price - For The Good Times
TTITLE14=Dan Seals - Bop
EXTD=Disk 2 of 3 in album
EXTT0=
EXTT1=
EXTT2=
EXTT3=
EXTT4=
EXTT5=
EXTT6=
EXTT7=
EXTT8=
EXTT9=
EXTT10=
EXTT11=
EXTT12=
EXTT13=
EXTT14=
PLAYORDER=
